<svg xmlns="http://www.w3.org/2000/svg" width="622" height="668" viewBox="0 0 622 668"><path d="M621.858755,218.866667 C621.858755,74.2333333 527.092088,31.8666667 527.092088,31.8666667 C479.325422,9.93333333 397.292088,0.7 312.058755,0 L309.958755,0 C224.725422,0.7 142.758755,9.93333333 94.9587552,31.8666667 C94.9587552,31.8666667 0.192088497,74.2666667 0.192088497,218.866667 C0.192088497,251.966667 -0.441244837,291.566667 0.592088497,333.566667 C4.02542183,475 26.5254218,614.4 157.292088,649 C217.592088,664.966667 269.358755,668.3 311.025422,666 C386.625422,661.8 429.058755,639.033333 429.058755,639.033333 L426.558755,584.166667 C426.558755,584.166667 372.525422,601.2 311.858755,599.133333 C251.725422,597.066667 188.292088,592.666667 178.558755,518.833333 C177.639614,511.972126 177.194116,505.055761 177.225422,498.133333 C177.225422,498.133333 236.225422,512.566667 311.025422,516 C356.758755,518.1 399.625422,513.333333 443.192088,508.133333 C526.725422,498.166667 599.458755,446.7 608.592088,399.666667 C623.058755,325.566667 621.858755,218.866667 621.858755,218.866667 Z M510.092088,405.2 L440.725422,405.2 L440.725422,235.233333 C440.725422,199.4 425.658755,181.233333 395.492088,181.233333 C362.158755,181.233333 345.458755,202.8 345.458755,245.466667 L345.458755,338.5 L276.492088,338.5 L276.492088,245.466667 C276.492088,202.8 259.792088,181.233333 226.425422,181.233333 C196.258755,181.233333 181.192088,199.433333 181.192088,235.233333 L181.192088,405.2 L111.825422,405.2 L111.825422,230.1 C111.825422,194.3 120.925422,165.866667 139.258755,144.833333 C158.125422,123.8 182.825422,113 213.525422,113 C249.025422,113 275.925422,126.633333 293.692088,153.933333 L310.958755,182.9 L328.258755,153.933333 C346.025422,126.633333 372.925422,113 408.425422,113 C439.092088,113 463.825422,123.8 482.692088,144.833333 C500.992088,165.866667 510.092088,194.3 510.092088,230.1 L510.092088,405.2 Z" transform="translate(.041 .667)"/></svg>